Format : AVI
Format/Info : Audio Video Interleave
File size : 700 MiB
Duration : 1h 32mn
Overall bit rate : 1 060 Kbps
Writing application : VirtualDubMod 1.5.4.1 (build 2178/release)
Writing library : VirtualDubMod build 2178/release

Video
ID : 0
Format : MPEG-4 Visual
Format settings, BVOP : Yes
Format settings, QPel : No
Format settings, GMC : No warppoints
Format settings, Matrix : Default (H.263)
Muxing mode : Packed bitstream
Codec ID : DX50
Codec ID/Hint : DivX 5
Duration : 1h 32mn
Bit rate : 924 Kbps
Width : 720 pixels
Height : 400 pixels
Display aspect ratio : 16:9
Frame rate : 25.000 fps
Resolution : 24 bits
Colorimetry : 4:2:0
Scan type : Progressive
Bits/(Pixel*Frame) : 0.128
Stream size : 611 MiB (87%)
Writing library : DivX 6.8.4

Audio
ID : 1
Format : MPEG Audio
Format version : Version 1
Format profile : Layer 3
Codec ID : 55
Codec ID/Hint : MP3
Duration : 1h 32mn
Bit rate mode : Constant
Bit rate : 128 Kbps
Channel(s) : 2 channels
Sampling rate : 48.0 KHz
Resolution : 16 bits
Stream size : 84.6 MiB (12%)
Alignment : Aligned on interleaves
Interleave, duration : 80 ms (2.00 video frames)
Interleave, preload duration : 504 ms
Writing library : LAME3.98r
Encoding settings : -m j -V 4 -q 2 -lowpass 17 -b 128
Language : English

Starring
Emma Stone
Penn Badgley
Amanda Bynes
Thomas Haden Church
Patricia Clarkson
Cam Gigandet
Lisa Kudrow
Malcolm McDowell
Alyson Michalka
Stanley Tucci

The film opens with Olive Penderghast (Emma Stone) talking into a web cam about how her little white lie ballooned into an uncontrollable monster. She says she will explain her side, the true side of what occurred. She says that she was a nobody that no one noticed outside her best friend Rhiannon (Alyson Michalka). Rhiannon wants to go camping with Olive but Olive lies and says she is going on a date. In reality, she just hangs around the house all weekend singing "Pocketful of Sunshine" by Natasha Bedingfield.
 
http://akas.imdb.com/title/tt1282140/

screens
 
http://img545.imageshack.us/img545/636/easyadivxviceavisnapsho.jpg 
http://img89.imageshack.us/img89/636/easyadivxviceavisnapsho.jpg 
http://img690.imageshack.us/img690/636/easyadivxviceavisnapsho.jpg 
http://img821.imageshack.us/img821/636/easyadivxviceavisnapsho.jpg